# xmcd CD database file
#
# Track frame offsets:
#	150
#	19238
#	41423
#	62350
#	79005
#	94380
#	111618
#	127813
#	146635
#	169855
#	187445
#	207613
#
# Disc length: 2959 seconds
#
# Revision: 0
# Processed by: cddbd v1.5.1PL2 Copyright (c) Steve Scherf et al.
# Submitted via: CDex 1.51
#
DISCID=b20b8d0c
DTITLE=ヲ{・貲Tシヨケホ - ツトァJエオュキサP40ァ箒」オ^06
DYEAR=1900
DGENRE=Easy Listening
TTITLE0=Don't Say Good-night
TTITLE1=Careless Whisper
TTITLE2=Casablanca
TTITLE3=Nothing Gonna Change My Love For You
TTITLE4=Let It Be Me
TTITLE5=Feeling
TTITLE6=Say You Say Me
TTITLE7=Last Christmas
TTITLE8=The One You Love
TTITLE9=Only Love
TTITLE10=Up Where We Belong
TTITLE11=Hello
EXTD=
EXTT0=
EXTT1=
EXTT2=
EXTT3=
EXTT4=
EXTT5=
EXTT6=
EXTT7=
EXTT8=
EXTT9=
EXTT10=
EXTT11=
PLAYORDER=
